<svg xmlns="http://www.w3.org/2000/svg" width="119.06" height="119.06">
  <svg xmlns="http://www.w3.org/2000/svg" viewBox="0 0 119.06 119.06">
    <rect width="119.06" height="119.06" fill="#fad899" />
    <path fill="#4a5d47"
      d="M84.95 72.13V14.08h-4.11V8.11h.92V5.9H71.74v2.21h.92v5.97h-12.8l-6.89 9.85H35.72v19.56H25.3v11.09h.79V44.29h1.17v10.29h.79V44.29h1.17v10.29h.79V44.29h1.17v10.29h.38-6.26v8.96l-6.92 9.9v18.12h44.13v17.07h22.46V91.56h10.77V72.12H84.97ZM35.1 44.29v5.21l-1.17 1.67v-6.88h1.17Zm-3.13 0h1.17v8.02l-1.17 1.67v-9.69Zm32.1 27.84H42.01l22.06-33.36v33.36Z" />
  </svg>
</svg>
